<svg width="590" height="67" viewBox="0 0 590 67" fill="none" xmlns="http://www.w3.org/2000/svg">
<mask id="path-1-outside-1_1_353" maskUnits="userSpaceOnUse" x="-2" y="-2" width="594" height="71" fill="black">
<rect fill="white" x="-2" y="-2" width="594" height="71"/>
<path d="M0.675 65V1.81H18.92V28.154L44.196 1.81H67.514L38.5 31.981L68.849 65H44.196L18.92 37.41V65H0.675ZM101.356 66.068C91.6256 66.068 83.5266 63.0123 77.0593 56.901C70.6513 50.7897 67.4473 42.9577 67.4473 33.405C67.4473 23.615 70.6809 15.7237 77.1483 9.731C83.6156 3.73833 91.6849 0.741994 101.356 0.741994C111.206 0.741994 119.305 3.79766 125.653 9.909C132.061 15.961 135.265 23.793 135.265 33.405C135.265 43.0763 132.002 50.938 125.475 56.99C119.008 63.042 110.968 66.068 101.356 66.068ZM101.356 49.87C106.044 49.87 109.782 48.2977 112.57 45.153C115.359 42.0083 116.753 38.0923 116.753 33.405C116.753 26.0477 113.787 20.9747 107.853 18.186C105.836 17.3553 103.67 16.94 101.356 16.94C96.6689 16.94 92.9309 18.5123 90.1423 21.657C87.3536 24.8017 85.9593 28.7177 85.9593 33.405C85.9593 38.1517 87.3536 42.0973 90.1423 45.242C92.9903 48.3273 96.7283 49.87 101.356 49.87ZM191.033 65V41.326H164.066V65H145.821V1.81H164.066V25.484H191.033V1.81H209.278V65H191.033ZM218.827 17.474V1.81H282.729V17.474H259.856V65H241.7V17.474H218.827ZM332.681 65L329.032 56.1H301.086L297.437 65H278.925L305.892 1.81H325.561L352.35 65H332.681ZM307.316 41.148H322.802L315.059 22.28L307.316 41.148ZM359.891 65V1.81H378.136V28.154L403.412 1.81H426.73L397.716 31.981L428.065 65H403.412L378.136 37.41V65H359.891ZM430.028 17.474V1.81H493.93V17.474H471.057V65H452.901V17.474H430.028ZM521.629 20.322H540.853C548.566 20.322 554.559 22.2207 558.831 26.018C563.103 29.756 565.239 35.3037 565.239 42.661C565.239 50.1963 563.044 55.8033 558.653 59.482C554.262 63.1607 548.329 65 540.853 65H503.473V1.81H521.629V20.322ZM538.45 35.986H521.629V49.336H538.45C543.849 49.336 546.549 47.111 546.549 42.661C546.549 38.211 543.849 35.986 538.45 35.986ZM571.024 65V1.81H589.269V65H571.024Z"/>
</mask>
<path d="M0.675 65H-1.325V67H0.675V65ZM0.675 1.81V-0.190002H-1.325V1.81H0.675ZM18.92 1.81H20.92V-0.190002H18.92V1.81ZM18.92 28.154H16.92V33.1273L20.3632 29.5387L18.92 28.154ZM44.196 1.81V-0.190002H43.3432L42.7528 0.425339L44.196 1.81ZM67.514 1.81L68.9556 3.1963L72.212 -0.190002H67.514V1.81ZM38.5 31.981L37.0584 30.5947L35.7551 31.95L37.0275 33.3344L38.5 31.981ZM68.849 65V67H73.4038L70.3215 63.6466L68.849 65ZM44.196 65L42.7213 66.351L43.3158 67H44.196V65ZM18.92 37.41L20.3947 36.059L16.92 32.2662V37.41H18.92ZM18.92 65V67H20.92V65H18.92ZM2.675 65V1.81H-1.325V65H2.675ZM0.675 3.81H18.92V-0.190002H0.675V3.81ZM16.92 1.81V28.154H20.92V1.81H16.92ZM20.3632 29.5387L45.6392 3.19465L42.7528 0.425339L17.4768 26.7693L20.3632 29.5387ZM44.196 3.81H67.514V-0.190002H44.196V3.81ZM66.0724 0.423695L37.0584 30.5947L39.9416 33.3673L68.9556 3.1963L66.0724 0.423695ZM37.0275 33.3344L67.3765 66.3534L70.3215 63.6466L39.9725 30.6276L37.0275 33.3344ZM68.849 63H44.196V67H68.849V63ZM45.6707 63.649L20.3947 36.059L17.4453 38.761L42.7213 66.351L45.6707 63.649ZM16.92 37.41V65H20.92V37.41H16.92ZM18.92 63H0.675V67H18.92V63ZM77.0592 56.901L75.6789 58.3483L75.6856 58.3547L77.0592 56.901ZM77.1483 9.731L75.7889 8.26397L77.1483 9.731ZM125.653 9.909L124.266 11.3499L124.273 11.3565L124.28 11.363L125.653 9.909ZM125.475 56.99L124.115 55.5234L124.109 55.5297L125.475 56.99ZM112.57 45.153L111.074 43.826L112.57 45.153ZM107.853 18.186L108.704 16.3759L108.66 16.3552L108.615 16.3366L107.853 18.186ZM90.1423 21.657L91.6386 22.984V22.984L90.1423 21.657ZM90.1423 45.242L88.6459 46.569L88.6591 46.5839L88.6726 46.5986L90.1423 45.242ZM101.356 64.068C92.0843 64.068 84.4927 61.1736 78.4329 55.4473L75.6856 58.3547C82.5605 64.8511 91.1669 68.068 101.356 68.068V64.068ZM78.4396 55.4537C72.4607 49.7516 69.4473 42.4588 69.4473 33.405H65.4473C65.4473 43.4566 68.8418 51.8277 75.6789 58.3483L78.4396 55.4537ZM69.4473 33.405C69.4473 24.1037 72.4962 16.7682 78.5076 11.198L75.7889 8.26397C68.8656 14.6791 65.4473 23.1263 65.4473 33.405H69.4473ZM78.5076 11.198C84.568 5.58243 92.1359 2.74199 101.356 2.74199V-1.25801C91.2339 -1.25801 82.6632 1.89423 75.7889 8.26397L78.5076 11.198ZM101.356 2.74199C110.755 2.74199 118.335 5.64069 124.266 11.3499L127.04 8.46811C120.274 1.95464 111.657 -1.25801 101.356 -1.25801V2.74199ZM124.28 11.363C130.249 17.0008 133.265 24.2879 133.265 33.405H137.265C137.265 23.2981 133.873 14.9212 127.027 8.45497L124.28 11.363ZM133.265 33.405C133.265 42.5735 130.196 49.885 124.115 55.5235L126.835 58.4565C133.808 51.991 137.265 43.5792 137.265 33.405H133.265ZM124.109 55.5297C118.045 61.204 110.508 64.068 101.356 64.068V68.068C111.429 68.068 119.971 64.88 126.842 58.4503L124.109 55.5297ZM101.356 51.87C106.542 51.87 110.852 50.1048 114.067 46.48L111.074 43.826C108.711 46.4905 105.545 47.87 101.356 47.87V51.87ZM114.067 46.48C117.218 42.9265 118.753 38.5208 118.753 33.405H114.753C114.753 37.6639 113.5 41.0901 111.074 43.826L114.067 46.48ZM118.753 33.405C118.753 29.4599 117.957 25.9837 116.255 23.0726C114.544 20.1471 111.993 17.9217 108.704 16.3759L107.003 19.996C109.647 21.239 111.546 22.9444 112.802 25.0919C114.066 27.2538 114.753 29.9928 114.753 33.405H118.753ZM108.615 16.3366C106.341 15.4006 103.915 14.94 101.356 14.94V18.94C103.425 18.94 105.33 19.3101 107.092 20.0354L108.615 16.3366ZM101.356 14.94C96.1704 14.94 91.8603 16.7052 88.6459 20.33L91.6386 22.984C94.0015 20.3195 97.1674 18.94 101.356 18.94V14.94ZM88.6459 20.33C85.4947 23.8835 83.9593 28.2892 83.9593 33.405H87.9593C87.9593 29.1461 89.2125 25.7199 91.6386 22.984L88.6459 20.33ZM83.9593 33.405C83.9593 38.573 85.4905 43.0107 88.6459 46.569L91.6386 43.915C89.2167 41.1839 87.9593 37.7304 87.9593 33.405H83.9593ZM88.6726 46.5986C91.9403 50.1385 96.2335 51.87 101.356 51.87V47.87C97.223 47.87 94.0402 46.5162 91.6119 43.8854L88.6726 46.5986ZM191.033 65H189.033V67H191.033V65ZM191.033 41.326H193.033V39.326H191.033V41.326ZM164.066 41.326V39.326H162.066V41.326H164.066ZM164.066 65V67H166.066V65H164.066ZM145.821 65H143.821V67H145.821V65ZM145.821 1.81V-0.190002H143.821V1.81H145.821ZM164.066 1.81H166.066V-0.190002H164.066V1.81ZM164.066 25.484H162.066V27.484H164.066V25.484ZM191.033 25.484V27.484H193.033V25.484H191.033ZM191.033 1.81V-0.190002H189.033V1.81H191.033ZM209.278 1.81H211.278V-0.190002H209.278V1.81ZM209.278 65V67H211.278V65H209.278ZM193.033 65V41.326H189.033V65H193.033ZM191.033 39.326H164.066V43.326H191.033V39.326ZM162.066 41.326V65H166.066V41.326H162.066ZM164.066 63H145.821V67H164.066V63ZM147.821 65V1.81H143.821V65H147.821ZM145.821 3.81H164.066V-0.190002H145.821V3.81ZM162.066 1.81V25.484H166.066V1.81H162.066ZM164.066 27.484H191.033V23.484H164.066V27.484ZM193.033 25.484V1.81H189.033V25.484H193.033ZM191.033 3.81H209.278V-0.190002H191.033V3.81ZM207.278 1.81V65H211.278V1.81H207.278ZM209.278 63H191.033V67H209.278V63ZM218.827 17.474H216.827V19.474H218.827V17.474ZM218.827 1.81V-0.190002H216.827V1.81H218.827ZM282.729 1.81H284.729V-0.190002H282.729V1.81ZM282.729 17.474V19.474H284.729V17.474H282.729ZM259.856 17.474V15.474H257.856V17.474H259.856ZM259.856 65V67H261.856V65H259.856ZM241.7 65H239.7V67H241.7V65ZM241.7 17.474H243.7V15.474H241.7V17.474ZM220.827 17.474V1.81H216.827V17.474H220.827ZM218.827 3.81H282.729V-0.190002H218.827V3.81ZM280.729 1.81V17.474H284.729V1.81H280.729ZM282.729 15.474H259.856V19.474H282.729V15.474ZM257.856 17.474V65H261.856V17.474H257.856ZM259.856 63H241.7V67H259.856V63ZM243.7 65V17.474H239.7V65H243.7ZM241.7 15.474H218.827V19.474H241.7V15.474ZM332.681 65L330.831 65.7587L331.34 67H332.681V65ZM329.032 56.1L330.883 55.3413L330.374 54.1H329.032V56.1ZM301.086 56.1V54.1H299.745L299.236 55.3413L301.086 56.1ZM297.437 65V67H298.779L299.288 65.7587L297.437 65ZM278.925 65L277.086 64.215L275.897 67H278.925V65ZM305.892 1.81V-0.190002H304.571L304.053 1.02497L305.892 1.81ZM325.561 1.81L327.403 1.02936L326.886 -0.190002H325.561V1.81ZM352.35 65V67H355.37L354.192 64.2194L352.35 65ZM307.316 41.148L305.466 40.3887L304.334 43.148H307.316V41.148ZM322.802 41.148V43.148H325.785L324.652 40.3887L322.802 41.148ZM315.059 22.28L316.909 21.5207L315.059 17.012L313.209 21.5207L315.059 22.28ZM334.532 64.2413L330.883 55.3413L327.182 56.8587L330.831 65.7587L334.532 64.2413ZM329.032 54.1H301.086V58.1H329.032V54.1ZM299.236 55.3413L295.587 64.2413L299.288 65.7587L302.937 56.8587L299.236 55.3413ZM297.437 63H278.925V67H297.437V63ZM280.765 65.785L307.732 2.59502L304.053 1.02497L277.086 64.215L280.765 65.785ZM305.892 3.81H325.561V-0.190002H305.892V3.81ZM323.72 2.59063L350.509 65.7806L354.192 64.2194L327.403 1.02936L323.72 2.59063ZM352.35 63H332.681V67H352.35V63ZM307.316 43.148H322.802V39.148H307.316V43.148ZM324.652 40.3887L316.909 21.5207L313.209 23.0393L320.952 41.9073L324.652 40.3887ZM313.209 21.5207L305.466 40.3887L309.166 41.9073L316.909 23.0393L313.209 21.5207ZM359.891 65H357.891V67H359.891V65ZM359.891 1.81V-0.190002H357.891V1.81H359.891ZM378.136 1.81H380.136V-0.190002H378.136V1.81ZM378.136 28.154H376.136V33.1273L379.579 29.5387L378.136 28.154ZM403.412 1.81V-0.190002H402.559L401.969 0.425339L403.412 1.81ZM426.73 1.81L428.171 3.1963L431.428 -0.190002H426.73V1.81ZM397.716 31.981L396.274 30.5947L394.971 31.95L396.243 33.3344L397.716 31.981ZM428.065 65V67H432.62L429.537 63.6466L428.065 65ZM403.412 65L401.937 66.351L402.532 67H403.412V65ZM378.136 37.41L379.611 36.059L376.136 32.2662V37.41H378.136ZM378.136 65V67H380.136V65H378.136ZM361.891 65V1.81H357.891V65H361.891ZM359.891 3.81H378.136V-0.190002H359.891V3.81ZM376.136 1.81V28.154H380.136V1.81H376.136ZM379.579 29.5387L404.855 3.19465L401.969 0.425339L376.693 26.7693L379.579 29.5387ZM403.412 3.81H426.73V-0.190002H403.412V3.81ZM425.288 0.423695L396.274 30.5947L399.157 33.3673L428.171 3.1963L425.288 0.423695ZM396.243 33.3344L426.592 66.3534L429.537 63.6466L399.188 30.6276L396.243 33.3344ZM428.065 63H403.412V67H428.065V63ZM404.887 63.649L379.611 36.059L376.661 38.761L401.937 66.351L404.887 63.649ZM376.136 37.41V65H380.136V37.41H376.136ZM378.136 63H359.891V67H378.136V63ZM430.028 17.474H428.028V19.474H430.028V17.474ZM430.028 1.81V-0.190002H428.028V1.81H430.028ZM493.93 1.81H495.93V-0.190002H493.93V1.81ZM493.93 17.474V19.474H495.93V17.474H493.93ZM471.057 17.474V15.474H469.057V17.474H471.057ZM471.057 65V67H473.057V65H471.057ZM452.901 65H450.901V67H452.901V65ZM452.901 17.474H454.901V15.474H452.901V17.474ZM432.028 17.474V1.81H428.028V17.474H432.028ZM430.028 3.81H493.93V-0.190002H430.028V3.81ZM491.93 1.81V17.474H495.93V1.81H491.93ZM493.93 15.474H471.057V19.474H493.93V15.474ZM469.057 17.474V65H473.057V17.474H469.057ZM471.057 63H452.901V67H471.057V63ZM454.901 65V17.474H450.901V65H454.901ZM452.901 15.474H430.028V19.474H452.901V15.474ZM521.629 20.322H519.629V22.322H521.629V20.322ZM558.831 26.018L557.502 27.5128L557.508 27.518L557.514 27.5232L558.831 26.018ZM503.473 65H501.473V67H503.473V65ZM503.473 1.81V-0.190002H501.473V1.81H503.473ZM521.629 1.81H523.629V-0.190002H521.629V1.81ZM521.629 35.986V33.986H519.629V35.986H521.629ZM521.629 49.336H519.629V51.336H521.629V49.336ZM571.024 65H569.024V67H571.024V65ZM571.024 1.81V-0.190002H569.024V1.81H571.024ZM589.269 1.81H591.269V-0.190002H589.269V1.81ZM589.269 65V67H591.269V65H589.269ZM521.629 22.322H540.853V18.322H521.629V22.322ZM540.853 22.322C548.249 22.322 553.708 24.14 557.502 27.5128L560.16 24.5232C555.41 20.3014 548.883 18.322 540.853 18.322V22.322ZM557.514 27.5232C561.231 30.776 563.239 35.6983 563.239 42.661H567.239C567.239 34.909 564.974 28.736 560.148 24.5128L557.514 27.5232ZM563.239 42.661C563.239 49.8041 561.172 54.7621 557.368 57.949L559.937 61.015C564.915 56.8446 567.239 50.5885 567.239 42.661H563.239ZM557.368 57.949C553.435 61.2442 548.005 63 540.853 63V67C548.653 67 555.089 65.0772 559.937 61.015L557.368 57.949ZM540.853 63H503.473V67H540.853V63ZM505.473 65V1.81H501.473V65H505.473ZM503.473 3.81H521.629V-0.190002H503.473V3.81ZM519.629 1.81V20.322H523.629V1.81H519.629ZM538.45 33.986H521.629V37.986H538.45V33.986ZM519.629 35.986V49.336H523.629V35.986H519.629ZM521.629 51.336H538.45V47.336H521.629V51.336ZM538.45 51.336C541.374 51.336 543.939 50.7414 545.796 49.2106C547.728 47.6188 548.549 45.3072 548.549 42.661H544.549C544.549 44.4648 544.02 45.4907 543.252 46.1239C542.41 46.8181 540.925 47.336 538.45 47.336V51.336ZM548.549 42.661C548.549 40.0148 547.728 37.7032 545.796 36.1114C543.939 34.5806 541.374 33.986 538.45 33.986V37.986C540.925 37.986 542.41 38.5039 543.252 39.1981C544.02 39.8313 544.549 40.8572 544.549 42.661H548.549ZM573.024 65V1.81H569.024V65H573.024ZM571.024 3.81H589.269V-0.190002H571.024V3.81ZM587.269 1.81V65H591.269V1.81H587.269ZM589.269 63H571.024V67H589.269V63Z" fill="white" mask="url(#path-1-outside-1_1_353)"/>
</svg>
