<svg width="469" height="82" viewBox="0 0 469 82" fill="none" xmlns="http://www.w3.org/2000/svg">
<mask id="path-1-outside-1_1_68" maskUnits="userSpaceOnUse" x="-2" y="-2" width="473" height="86" fill="black">
<rect fill="white" x="-2" y="-2" width="473" height="86"/>
<path d="M0.633 65V1.454H48.337V65H40.416V8.485H8.643V65H0.633ZM82.5526 1.454C90.8593 1.454 96.9113 3.08566 100.709 6.349C104.506 9.61233 106.405 14.2107 106.405 20.144C106.405 22.7547 105.96 25.2763 105.07 27.709C104.239 30.0823 102.845 32.2183 100.887 34.117C98.9286 36.0157 96.318 37.5287 93.0546 38.656C89.7913 39.724 85.7863 40.258 81.0396 40.258H73.7416V65H65.7316V1.454H82.5526ZM81.8406 8.307H73.7416V33.405H80.1496C84.1843 33.405 87.5366 32.9897 90.2066 32.159C92.8766 31.269 94.8643 29.8747 96.1696 27.976C97.475 26.0773 98.1276 23.5853 98.1276 20.5C98.1276 16.406 96.8223 13.3503 94.2116 11.333C91.601 9.31566 87.4773 8.307 81.8406 8.307ZM175.065 33.138C175.065 38.0627 174.442 42.5423 173.196 46.577C171.95 50.5523 170.081 53.9937 167.589 56.901C165.157 59.8083 162.101 62.0333 158.422 63.576C154.803 65.1187 150.59 65.89 145.784 65.89C140.8 65.89 136.469 65.1187 132.79 63.576C129.112 61.974 126.056 59.749 123.623 56.901C121.191 53.9937 119.381 50.5227 118.194 46.488C117.008 42.4533 116.414 37.9737 116.414 33.049C116.414 26.5223 117.482 20.8263 119.618 15.961C121.754 11.0957 124.988 7.29833 129.319 4.569C133.71 1.83966 139.228 0.474998 145.873 0.474998C152.222 0.474998 157.562 1.83966 161.893 4.569C166.225 7.239 169.488 11.0363 171.683 15.961C173.938 20.8263 175.065 26.552 175.065 33.138ZM124.869 33.138C124.869 38.478 125.611 43.0763 127.094 46.933C128.578 50.7897 130.862 53.7563 133.947 55.833C137.092 57.9097 141.038 58.948 145.784 58.948C150.59 58.948 154.506 57.9097 157.532 55.833C160.618 53.7563 162.902 50.7897 164.385 46.933C165.869 43.0763 166.61 38.478 166.61 33.138C166.61 25.128 164.949 18.8683 161.626 14.359C158.304 9.79033 153.053 7.506 145.873 7.506C141.067 7.506 137.092 8.54433 133.947 10.621C130.862 12.6383 128.578 15.5753 127.094 19.432C125.611 23.2293 124.869 27.798 124.869 33.138ZM230.22 1.454V57.88H238.319V81.732H230.665V65H186.966V81.732H179.312V57.88H184.207C186.343 54.2013 188.361 50.0777 190.259 45.509C192.217 40.9403 193.938 36.164 195.421 31.18C196.905 26.1367 198.121 21.0933 199.07 16.05C200.02 11.0067 200.613 6.14133 200.85 1.454H230.22ZM207.881 8.663C207.644 12.1043 207.051 15.9907 206.101 20.322C205.211 24.6533 204.054 29.1033 202.63 33.672C201.266 38.1813 199.723 42.5423 198.002 46.755C196.341 50.9677 194.561 54.676 192.662 57.88H222.299V8.663H207.881ZM275.557 46.933C273.659 51.1457 271.73 54.676 269.772 57.524C267.874 60.3127 265.619 62.419 263.008 63.843C260.398 65.2077 257.075 65.89 253.04 65.89C251.379 65.89 249.807 65.7713 248.323 65.534C246.899 65.2967 245.594 64.9703 244.407 64.555V56.634C245.594 57.168 246.87 57.613 248.234 57.969C249.599 58.2657 251.023 58.414 252.506 58.414C254.702 58.414 256.571 58.1173 258.113 57.524C259.715 56.8713 261.11 55.833 262.296 54.409C263.542 52.985 264.699 51.0863 265.767 48.713L241.292 1.454H250.103L267.814 36.431C268.052 36.8463 268.289 37.3507 268.526 37.944C268.764 38.478 269.001 39.0417 269.238 39.635C269.535 40.2283 269.772 40.792 269.95 41.326H270.306C270.484 40.9107 270.662 40.436 270.84 39.902C271.078 39.3087 271.285 38.745 271.463 38.211C271.701 37.6177 271.908 37.1133 272.086 36.698L287.394 1.454H295.849L275.557 46.933ZM350.854 65H341.242L312.495 32.782V65H304.485V1.454H312.495V32.248L340.53 1.454H349.608L322.018 32.337L350.854 65ZM379.615 65H371.605V8.485H351.758V1.454H399.373V8.485H379.615V65ZM408.955 65V1.454H416.965V28.332H426.755C432.689 28.332 437.346 29.133 440.728 30.735C444.17 32.337 446.602 34.5027 448.026 37.232C449.51 39.9613 450.251 43.017 450.251 46.399C450.251 50.137 449.45 53.4003 447.848 56.189C446.306 58.9777 443.873 61.1433 440.55 62.686C437.228 64.2287 432.956 65 427.734 65H408.955ZM427.022 58.236C432.125 58.236 435.893 57.257 438.325 55.299C440.758 53.341 441.974 50.3743 441.974 46.399C441.974 43.6697 441.381 41.504 440.194 39.902C439.067 38.3 437.317 37.143 434.943 36.431C432.57 35.719 429.544 35.363 425.865 35.363H416.965V58.236H427.022ZM460.041 65V1.454H468.051V65H460.041Z"/>
</mask>
<path d="M0.633 65H-1.367V67H0.633V65ZM0.633 1.454V-0.546003H-1.367V1.454H0.633ZM48.337 1.454H50.337V-0.546003H48.337V1.454ZM48.337 65V67H50.337V65H48.337ZM40.416 65H38.416V67H40.416V65ZM40.416 8.48499H42.416V6.48499H40.416V8.48499ZM8.643 8.48499V6.48499H6.643V8.48499H8.643ZM8.643 65V67H10.643V65H8.643ZM2.633 65V1.454H-1.367V65H2.633ZM0.633 3.454H48.337V-0.546003H0.633V3.454ZM46.337 1.454V65H50.337V1.454H46.337ZM48.337 63H40.416V67H48.337V63ZM42.416 65V8.48499H38.416V65H42.416ZM40.416 6.48499H8.643V10.485H40.416V6.48499ZM6.643 8.48499V65H10.643V8.48499H6.643ZM8.643 63H0.633V67H8.643V63ZM100.709 6.349L99.4051 7.86584L100.709 6.349ZM105.07 27.709L103.191 27.0218L103.187 27.035L103.182 27.0483L105.07 27.709ZM100.887 34.117L102.279 35.5528L100.887 34.117ZM93.0546 38.656L93.6767 40.5568L93.6922 40.5517L93.7077 40.5464L93.0546 38.656ZM73.7416 40.258V38.258H71.7416V40.258H73.7416ZM73.7416 65V67H75.7416V65H73.7416ZM65.7316 65H63.7316V67H65.7316V65ZM65.7316 1.454V-0.546003H63.7316V1.454H65.7316ZM73.7416 8.307V6.307H71.7416V8.307H73.7416ZM73.7416 33.405H71.7416V35.405H73.7416V33.405ZM90.2066 32.159L90.8008 34.0687L90.82 34.0627L90.8391 34.0564L90.2066 32.159ZM96.1696 27.976L94.5216 26.8429L96.1696 27.976ZM94.2116 11.333L95.4345 9.75043V9.75043L94.2116 11.333ZM82.5526 3.454C90.6733 3.454 96.1434 5.06285 99.4051 7.86584L102.012 4.83216C97.6792 1.10848 91.0453 -0.546003 82.5526 -0.546003V3.454ZM99.4051 7.86584C102.678 10.6781 104.405 14.6748 104.405 20.144H108.405C108.405 13.7465 106.334 8.5466 102.012 4.83216L99.4051 7.86584ZM104.405 20.144C104.405 22.5221 104 24.8111 103.191 27.0218L106.948 28.3962C107.919 25.7416 108.405 22.9872 108.405 20.144H104.405ZM103.182 27.0483C102.462 29.104 101.248 30.9802 99.4943 32.6812L102.279 35.5528C104.441 33.4565 106.016 31.0607 106.957 28.3697L103.182 27.0483ZM99.4943 32.6812C97.7946 34.3294 95.4595 35.7093 92.4016 36.7656L93.7077 40.5464C97.1765 39.3481 100.063 37.7019 102.279 35.5528L99.4943 32.6812ZM92.4326 36.7552C89.4304 37.7377 85.6496 38.258 81.0396 38.258V42.258C85.923 42.258 90.1522 41.7103 93.6767 40.5568L92.4326 36.7552ZM81.0396 38.258H73.7416V42.258H81.0396V38.258ZM71.7416 40.258V65H75.7416V40.258H71.7416ZM73.7416 63H65.7316V67H73.7416V63ZM67.7316 65V1.454H63.7316V65H67.7316ZM65.7316 3.454H82.5526V-0.546003H65.7316V3.454ZM81.8406 6.307H73.7416V10.307H81.8406V6.307ZM71.7416 8.307V33.405H75.7416V8.307H71.7416ZM73.7416 35.405H80.1496V31.405H73.7416V35.405ZM80.1496 35.405C84.3047 35.405 87.8739 34.9793 90.8008 34.0687L89.6125 30.2493C87.1994 31 84.0639 31.405 80.1496 31.405V35.405ZM90.8391 34.0564C93.8282 33.06 96.2154 31.4397 97.8177 29.1091L94.5216 26.8429C93.5132 28.3096 91.9251 29.478 89.5742 30.2616L90.8391 34.0564ZM97.8177 29.1091C99.4183 26.781 100.128 23.8552 100.128 20.5H96.1276C96.1276 23.3154 95.5317 25.3737 94.5216 26.8429L97.8177 29.1091ZM100.128 20.5C100.128 15.9516 98.6526 12.2371 95.4345 9.75043L92.9887 12.9156C94.992 14.4636 96.1276 16.8604 96.1276 20.5H100.128ZM95.4345 9.75043C92.3012 7.32925 87.6366 6.307 81.8406 6.307V10.307C87.318 10.307 90.9007 11.3021 92.9887 12.9156L95.4345 9.75043ZM173.196 46.577L175.105 47.1752L175.107 47.1671L173.196 46.577ZM167.589 56.901L166.071 55.5994L166.063 55.6084L166.055 55.6176L167.589 56.901ZM158.422 63.576L157.649 61.7316L157.638 61.7362L158.422 63.576ZM132.79 63.576L131.992 65.4097L132.004 65.4151L132.017 65.4204L132.79 63.576ZM123.623 56.901L122.089 58.1844L122.096 58.1922L122.103 58.2L123.623 56.901ZM118.194 46.488L116.276 47.0523L118.194 46.488ZM119.618 15.961L121.45 16.765L119.618 15.961ZM129.319 4.569L128.263 2.8704L128.253 2.87692L129.319 4.569ZM161.893 4.569L160.827 6.26108L160.835 6.26634L160.844 6.27151L161.893 4.569ZM171.683 15.961L169.857 16.7753L169.863 16.7887L169.869 16.8019L171.683 15.961ZM133.947 55.833L132.831 57.4922L132.838 57.4971L132.845 57.5019L133.947 55.833ZM157.532 55.833L156.416 54.1738L156.408 54.1789L156.401 54.184L157.532 55.833ZM161.626 14.359L160.009 15.5354L160.016 15.5454L161.626 14.359ZM133.947 10.621L135.042 12.295L135.049 12.2899L133.947 10.621ZM127.094 19.432L128.957 20.1597L128.961 20.15L127.094 19.432ZM173.065 33.138C173.065 37.895 172.464 42.172 171.285 45.9869L175.107 47.1671C176.421 42.9126 177.065 38.2303 177.065 33.138H173.065ZM171.288 45.9788C170.116 49.7186 168.372 52.9152 166.071 55.5994L169.108 58.2026C171.791 55.0721 173.785 51.386 175.105 47.1752L171.288 45.9788ZM166.055 55.6176C163.839 58.267 161.049 60.3058 157.649 61.7316L159.196 65.4204C163.153 63.7608 166.475 61.3497 169.123 58.1844L166.055 55.6176ZM157.638 61.7362C154.315 63.1525 150.379 63.89 145.784 63.89V67.89C150.802 67.89 155.291 67.0848 159.207 65.4158L157.638 61.7362ZM145.784 63.89C141.002 63.89 136.945 63.1494 133.564 61.7316L132.017 65.4204C135.993 67.0879 140.599 67.89 145.784 67.89V63.89ZM133.589 61.7423C130.168 60.2527 127.366 58.2031 125.144 55.602L122.103 58.2C124.746 61.2949 128.055 63.6953 131.992 65.4097L133.589 61.7423ZM125.157 55.6176C122.919 52.9429 121.231 49.7237 120.113 45.9237L116.276 47.0523C117.531 51.3216 119.462 55.0444 122.089 58.1844L125.157 55.6176ZM120.113 45.9237C118.989 42.1004 118.414 37.8144 118.414 33.049H114.414C114.414 38.1329 115.027 42.8062 116.276 47.0523L120.113 45.9237ZM118.414 33.049C118.414 26.7375 119.447 21.326 121.45 16.765L117.787 15.157C115.517 20.3267 114.414 26.3071 114.414 33.049H118.414ZM121.45 16.765C123.432 12.2508 126.406 8.76903 130.386 6.26108L128.253 2.87692C123.57 5.82763 120.077 9.94058 117.787 15.157L121.45 16.765ZM130.375 6.26757C134.37 3.78416 139.496 2.475 145.873 2.475V-1.525C138.96 -1.525 133.05 -0.10483 128.263 2.87043L130.375 6.26757ZM145.873 2.475C151.935 2.475 156.884 3.77624 160.827 6.26108L162.96 2.87692C158.24 -0.0969105 152.509 -1.525 145.873 -1.525V2.475ZM160.844 6.27151C164.812 8.71746 167.815 12.195 169.857 16.7753L173.51 15.1467C171.161 9.87765 167.638 5.76054 162.943 2.86648L160.844 6.27151ZM169.869 16.8019C171.977 21.3507 173.065 26.7777 173.065 33.138H177.065C177.065 26.3263 175.899 20.302 173.498 15.1201L169.869 16.8019ZM122.869 33.138C122.869 38.6552 123.635 43.5091 125.228 47.651L128.961 46.215C127.587 42.6436 126.869 38.3008 126.869 33.138H122.869ZM125.228 47.651C126.841 51.8465 129.367 55.161 132.831 57.4922L135.064 54.1738C132.357 52.3517 130.314 49.7329 128.961 46.215L125.228 47.651ZM132.845 57.5019C136.392 59.8444 140.747 60.948 145.784 60.948V56.948C141.328 56.948 137.792 55.9749 135.049 54.1641L132.845 57.5019ZM145.784 60.948C150.871 60.948 155.216 59.8485 158.664 57.482L156.401 54.184C153.797 55.9708 150.31 56.948 145.784 56.948V60.948ZM158.649 57.4922C162.113 55.161 164.638 51.8465 166.252 47.651L162.519 46.215C161.166 49.7329 159.123 52.3517 156.416 54.1738L158.649 57.4922ZM166.252 47.651C167.845 43.5091 168.61 38.6552 168.61 33.138H164.61C164.61 38.3008 163.892 42.6436 162.519 46.215L166.252 47.651ZM168.61 33.138C168.61 24.8784 166.901 18.1452 163.236 13.1726L160.016 15.5454C162.998 19.5914 164.61 25.3776 164.61 33.138H168.61ZM163.244 13.1827C159.444 7.95851 153.5 5.506 145.873 5.506V9.506C152.605 9.506 157.163 11.6222 160.009 15.5353L163.244 13.1827ZM145.873 5.506C140.783 5.506 136.396 6.60709 132.845 8.95207L135.049 12.2899C137.788 10.4816 141.352 9.506 145.873 9.506V5.506ZM132.853 8.94706C129.374 11.2215 126.843 14.5151 125.228 18.714L128.961 20.15C130.313 16.6356 132.35 14.0551 135.042 12.2949L132.853 8.94706ZM125.231 18.7043C123.634 22.7931 122.869 27.6222 122.869 33.138H126.869C126.869 27.9738 127.588 23.6655 128.957 20.1597L125.231 18.7043ZM230.22 1.454H232.22V-0.546003H230.22V1.454ZM230.22 57.88H228.22V59.88H230.22V57.88ZM238.319 57.88H240.319V55.88H238.319V57.88ZM238.319 81.732V83.732H240.319V81.732H238.319ZM230.665 81.732H228.665V83.732H230.665V81.732ZM230.665 65H232.665V63H230.665V65ZM186.966 65V63H184.966V65H186.966ZM186.966 81.732V83.732H188.966V81.732H186.966ZM179.312 81.732H177.312V83.732H179.312V81.732ZM179.312 57.88V55.88H177.312V57.88H179.312ZM184.207 57.88V59.88H185.359L185.937 58.8843L184.207 57.88ZM190.259 45.509L188.421 44.7212L188.417 44.7313L188.412 44.7415L190.259 45.509ZM195.421 31.18L197.338 31.7505L197.34 31.7443L195.421 31.18ZM199.07 16.05L201.036 16.42L199.07 16.05ZM200.85 1.454V-0.546003H198.949L198.853 1.35286L200.85 1.454ZM207.881 8.663V6.663H206.014L205.886 8.52539L207.881 8.663ZM206.101 20.322L204.148 19.8938L204.145 19.9066L204.142 19.9194L206.101 20.322ZM202.63 33.672L200.721 33.0769L200.718 33.0848L200.716 33.0927L202.63 33.672ZM198.002 46.755L196.151 45.9987L196.146 46.01L196.142 46.0213L198.002 46.755ZM192.662 57.88L190.942 56.8604L189.152 59.88H192.662V57.88ZM222.299 57.88V59.88H224.299V57.88H222.299ZM222.299 8.663H224.299V6.663H222.299V8.663ZM228.22 1.454V57.88H232.22V1.454H228.22ZM230.22 59.88H238.319V55.88H230.22V59.88ZM236.319 57.88V81.732H240.319V57.88H236.319ZM238.319 79.732H230.665V83.732H238.319V79.732ZM232.665 81.732V65H228.665V81.732H232.665ZM230.665 63H186.966V67H230.665V63ZM184.966 65V81.732H188.966V65H184.966ZM186.966 79.732H179.312V83.732H186.966V79.732ZM181.312 81.732V57.88H177.312V81.732H181.312ZM179.312 59.88H184.207V55.88H179.312V59.88ZM185.937 58.8843C188.124 55.1183 190.179 50.9138 192.106 46.2765L188.412 44.7415C186.542 49.2415 184.563 53.2844 182.478 56.8757L185.937 58.8843ZM192.098 46.2968C194.087 41.6541 195.834 36.805 197.338 31.7505L193.504 30.6095C192.042 35.523 190.347 40.2265 188.421 44.7212L192.098 46.2968ZM197.34 31.7443C198.842 26.6386 200.074 21.5304 201.036 16.42L197.105 15.68C196.168 20.6563 194.968 25.6347 193.503 30.6157L197.34 31.7443ZM201.036 16.42C202 11.296 202.605 6.3406 202.848 1.55513L198.853 1.35286C198.621 5.94206 198.039 10.7173 197.105 15.68L201.036 16.42ZM200.85 3.454H230.22V-0.546003H200.85V3.454ZM205.886 8.52539C205.657 11.846 205.082 15.6327 204.148 19.8938L208.055 20.7502C209.02 16.3486 209.631 12.3627 209.877 8.8006L205.886 8.52539ZM204.142 19.9194C203.267 24.1808 202.127 28.5664 200.721 33.0769L204.54 34.2671C205.982 29.6402 207.156 25.1259 208.06 20.7245L204.142 19.9194ZM200.716 33.0927C199.369 37.5442 197.847 41.846 196.151 45.9987L199.854 47.5112C201.599 43.2386 203.162 38.8185 204.545 34.2513L200.716 33.0927ZM196.142 46.0213C194.511 50.1554 192.776 53.7648 190.942 56.8604L194.383 58.8996C196.346 55.5872 198.171 51.78 199.863 47.4887L196.142 46.0213ZM192.662 59.88H222.299V55.88H192.662V59.88ZM224.299 57.88V8.663H220.299V57.88H224.299ZM222.299 6.663H207.881V10.663H222.299V6.663ZM275.557 46.933L277.381 47.7548L277.384 47.7479L275.557 46.933ZM269.772 57.524L268.124 56.3909L268.119 56.3984L269.772 57.524ZM263.008 63.843L263.935 65.6154L263.951 65.6073L263.966 65.5988L263.008 63.843ZM248.323 65.534L247.995 67.5068L248.008 67.5089L248.323 65.534ZM244.407 64.555H242.407V65.974L243.747 66.4427L244.407 64.555ZM244.407 56.634L245.228 54.8102L242.407 53.5408V56.634H244.407ZM248.234 57.969L247.73 59.9042L247.769 59.9146L247.81 59.9234L248.234 57.969ZM258.113 57.524L258.831 59.3907L258.85 59.3836L258.868 59.3762L258.113 57.524ZM262.296 54.409L260.791 53.092L260.775 53.1101L260.76 53.1286L262.296 54.409ZM265.767 48.713L267.591 49.5337L267.988 48.6519L267.543 47.7932L265.767 48.713ZM241.292 1.454V-0.546003H238.004L239.517 2.37375L241.292 1.454ZM250.103 1.454L251.888 0.550499L251.333 -0.546003H250.103V1.454ZM267.814 36.431L266.03 37.3345L266.053 37.3795L266.078 37.4233L267.814 36.431ZM268.526 37.944L266.67 38.6868L266.684 38.7218L266.699 38.7563L268.526 37.944ZM269.238 39.635L267.382 40.3778L267.412 40.455L267.45 40.5294L269.238 39.635ZM269.95 41.326L268.053 41.9585L268.509 43.326H269.95V41.326ZM270.306 41.326V43.326H271.625L272.145 42.1138L270.306 41.326ZM270.84 39.902L268.984 39.1592L268.962 39.2138L268.943 39.2695L270.84 39.902ZM271.463 38.211L269.607 37.4682L269.585 37.5228L269.566 37.5785L271.463 38.211ZM272.086 36.698L270.252 35.9012L270.248 35.9102L272.086 36.698ZM287.394 1.454V-0.546003H286.083L285.56 0.657221L287.394 1.454ZM295.849 1.454L297.676 2.26892L298.932 -0.546003H295.849V1.454ZM273.734 46.1112C271.869 50.2489 269.997 53.6677 268.124 56.3909L271.421 58.6571C273.464 55.6843 275.448 52.0424 277.381 47.7548L273.734 46.1112ZM268.119 56.3984C266.375 58.9604 264.347 60.8345 262.051 62.0872L263.966 65.5988C266.891 64.0035 269.373 61.6649 271.426 58.6496L268.119 56.3984ZM262.082 62.0705C259.843 63.2408 256.866 63.89 253.04 63.89V67.89C257.285 67.89 260.952 67.1745 263.935 65.6154L262.082 62.0705ZM253.04 63.89C251.474 63.89 250.008 63.7781 248.639 63.5591L248.008 67.5089C249.606 67.7646 251.284 67.89 253.04 67.89V63.89ZM248.652 63.5612C247.325 63.34 246.132 63.0397 245.068 62.6673L243.747 66.4427C245.056 66.9009 246.474 67.2533 247.995 67.5068L248.652 63.5612ZM246.407 64.555V56.634H242.407V64.555H246.407ZM243.587 58.4578C244.883 59.0414 246.266 59.5223 247.73 59.9042L248.739 56.0338C247.474 55.7037 246.305 55.2946 245.228 54.8102L243.587 58.4578ZM247.81 59.9234C249.322 60.2522 250.889 60.414 252.506 60.414V56.414C251.157 56.414 249.876 56.2792 248.659 56.0146L247.81 59.9234ZM252.506 60.414C254.871 60.414 256.998 60.0958 258.831 59.3907L257.396 55.6573C256.144 56.1388 254.532 56.414 252.506 56.414V60.414ZM258.868 59.3762C260.795 58.5911 262.452 57.3466 263.833 55.6894L260.76 53.1286C259.768 54.3194 258.636 55.1516 257.359 55.6718L258.868 59.3762ZM263.802 55.726C265.216 54.1092 266.47 52.0248 267.591 49.5337L263.944 47.8923C262.929 50.1478 261.869 51.8608 260.791 53.092L263.802 55.726ZM267.543 47.7932L243.068 0.534241L239.517 2.37375L263.992 49.6328L267.543 47.7932ZM241.292 3.454H250.103V-0.546003H241.292V3.454ZM248.319 2.35749L266.03 37.3345L269.599 35.5275L251.888 0.550499L248.319 2.35749ZM266.078 37.4233C266.257 37.7368 266.456 38.1527 266.67 38.6868L270.383 37.2012C270.122 36.5486 269.846 35.9558 269.551 35.4387L266.078 37.4233ZM266.699 38.7563C266.925 39.2653 267.153 39.8057 267.382 40.3778L271.095 38.8922C270.85 38.2777 270.603 37.6907 270.354 37.1317L266.699 38.7563ZM267.45 40.5294C267.711 41.0526 267.91 41.5284 268.053 41.9585L271.848 40.6935C271.635 40.0556 271.359 39.4041 271.027 38.7406L267.45 40.5294ZM269.95 43.326H270.306V39.326H269.95V43.326ZM272.145 42.1138C272.349 41.637 272.546 41.1089 272.738 40.5345L268.943 39.2695C268.779 39.7631 268.62 40.1843 268.468 40.5382L272.145 42.1138ZM272.697 40.6448C272.947 40.0198 273.169 39.4192 273.361 38.8435L269.566 37.5785C269.402 38.0708 269.208 38.5975 268.984 39.1592L272.697 40.6448ZM273.32 38.9538C273.554 38.3699 273.755 37.8815 273.925 37.4858L270.248 35.9102C270.062 36.3451 269.848 36.8654 269.607 37.4682L273.32 38.9538ZM273.921 37.4948L289.229 2.25077L285.56 0.657221L270.252 35.9012L273.921 37.4948ZM287.394 3.454H295.849V-0.546003H287.394V3.454ZM294.023 0.639067L273.731 46.1181L277.384 47.7479L297.676 2.26892L294.023 0.639067ZM350.854 65V67H355.287L352.353 63.6764L350.854 65ZM341.242 65L339.749 66.3315L340.346 67H341.242V65ZM312.495 32.782L313.987 31.4505L310.495 27.5365V32.782H312.495ZM312.495 65V67H314.495V65H312.495ZM304.485 65H302.485V67H304.485V65ZM304.485 1.454V-0.546003H302.485V1.454H304.485ZM312.495 1.454H314.495V-0.546003H312.495V1.454ZM312.495 32.248H310.495V37.4157L313.973 33.5944L312.495 32.248ZM340.53 1.454V-0.546003H339.646L339.051 0.107588L340.53 1.454ZM349.608 1.454L351.099 2.78646L354.076 -0.546003H349.608V1.454ZM322.018 32.337L320.526 31.0045L319.343 32.3291L320.518 33.6606L322.018 32.337ZM350.854 63H341.242V67H350.854V63ZM342.734 63.6685L313.987 31.4505L311.002 34.1135L339.749 66.3315L342.734 63.6685ZM310.495 32.782V65H314.495V32.782H310.495ZM312.495 63H304.485V67H312.495V63ZM306.485 65V1.454H302.485V65H306.485ZM304.485 3.454H312.495V-0.546003H304.485V3.454ZM310.495 1.454V32.248H314.495V1.454H310.495ZM313.973 33.5944L342.008 2.80041L339.051 0.107588L311.016 30.9016L313.973 33.5944ZM340.53 3.454H349.608V-0.546003H340.53V3.454ZM348.116 0.121538L320.526 31.0045L323.509 33.6695L351.099 2.78646L348.116 0.121538ZM320.518 33.6606L349.354 66.3236L352.353 63.6764L323.517 31.0134L320.518 33.6606ZM379.615 65V67H381.615V65H379.615ZM371.605 65H369.605V67H371.605V65ZM371.605 8.48499H373.605V6.48499H371.605V8.48499ZM351.758 8.48499H349.758V10.485H351.758V8.48499ZM351.758 1.454V-0.546003H349.758V1.454H351.758ZM399.373 1.454H401.373V-0.546003H399.373V1.454ZM399.373 8.48499V10.485H401.373V8.48499H399.373ZM379.615 8.48499V6.48499H377.615V8.48499H379.615ZM379.615 63H371.605V67H379.615V63ZM373.605 65V8.48499H369.605V65H373.605ZM371.605 6.48499H351.758V10.485H371.605V6.48499ZM353.758 8.48499V1.454H349.758V8.48499H353.758ZM351.758 3.454H399.373V-0.546003H351.758V3.454ZM397.373 1.454V8.48499H401.373V1.454H397.373ZM399.373 6.48499H379.615V10.485H399.373V6.48499ZM377.615 8.48499V65H381.615V8.48499H377.615ZM408.955 65H406.955V67H408.955V65ZM408.955 1.454V-0.546003H406.955V1.454H408.955ZM416.965 1.454H418.965V-0.546003H416.965V1.454ZM416.965 28.332H414.965V30.332H416.965V28.332ZM440.728 30.735L439.872 32.5425L439.884 32.5482L440.728 30.735ZM448.026 37.232L446.253 38.1571L446.261 38.1721L446.269 38.187L448.026 37.232ZM447.848 56.189L446.114 55.1927L446.106 55.2067L446.098 55.2209L447.848 56.189ZM440.194 39.902L438.559 41.053L438.573 41.0729L438.587 41.0925L440.194 39.902ZM434.943 36.431L435.518 34.5153L434.943 36.431ZM416.965 35.363V33.363H414.965V35.363H416.965ZM416.965 58.236H414.965V60.236H416.965V58.236ZM460.041 65H458.041V67H460.041V65ZM460.041 1.454V-0.546003H458.041V1.454H460.041ZM468.051 1.454H470.051V-0.546003H468.051V1.454ZM468.051 65V67H470.051V65H468.051ZM410.955 65V1.454H406.955V65H410.955ZM408.955 3.454H416.965V-0.546003H408.955V3.454ZM414.965 1.454V28.332H418.965V1.454H414.965ZM416.965 30.332H426.755V26.332H416.965V30.332ZM426.755 30.332C432.547 30.332 436.869 31.12 439.872 32.5425L441.584 28.9275C437.823 27.146 432.83 26.332 426.755 26.332V30.332ZM439.884 32.5482C443.022 34.0087 445.076 35.9017 446.253 38.1571L449.799 36.3069C448.128 33.1036 445.318 30.6653 441.572 28.9218L439.884 32.5482ZM446.269 38.187C447.579 40.5977 448.251 43.3203 448.251 46.399H452.251C452.251 42.7137 451.44 39.325 449.784 36.277L446.269 38.187ZM448.251 46.399C448.251 49.8447 447.515 52.7533 446.114 55.1927L449.582 57.1852C451.385 54.0473 452.251 50.4293 452.251 46.399H448.251ZM446.098 55.2209C444.791 57.5847 442.706 59.4802 439.708 60.872L441.392 64.5C445.04 62.8065 447.821 60.3706 449.598 57.1571L446.098 55.2209ZM439.708 60.872C436.737 62.2515 432.78 63 427.734 63V67C433.132 67 437.719 66.2058 441.392 64.5L439.708 60.872ZM427.734 63H408.955V67H427.734V63ZM427.022 60.236C432.313 60.236 436.627 59.2329 439.579 56.857L437.071 53.741C435.158 55.2811 431.936 56.236 427.022 56.236V60.236ZM439.579 56.857C442.608 54.4193 443.974 50.7999 443.974 46.399H439.974C439.974 49.9488 438.908 52.2627 437.071 53.741L439.579 56.857ZM443.974 46.399C443.974 43.3964 443.322 40.7648 441.801 38.7115L438.587 41.0925C439.44 42.2432 439.974 43.9429 439.974 46.399H443.974ZM441.83 38.751C440.383 36.6946 438.205 35.3214 435.518 34.5153L434.369 38.3467C436.428 38.9646 437.751 39.9054 438.559 41.053L441.83 38.751ZM435.518 34.5153C432.892 33.7274 429.654 33.363 425.865 33.363V37.363C429.434 37.363 432.248 37.7106 434.369 38.3467L435.518 34.5153ZM425.865 33.363H416.965V37.363H425.865V33.363ZM414.965 35.363V58.236H418.965V35.363H414.965ZM416.965 60.236H427.022V56.236H416.965V60.236ZM462.041 65V1.454H458.041V65H462.041ZM460.041 3.454H468.051V-0.546003H460.041V3.454ZM466.051 1.454V65H470.051V1.454H466.051ZM468.051 63H460.041V67H468.051V63Z" fill="white" mask="url(#path-1-outside-1_1_68)"/>
</svg>
