<svg width="32" height="32" viewBox="0 0 32 32" fill="none" xmlns="http://www.w3.org/2000/svg">
<path fill-rule="evenodd" clip-rule="evenodd" d="M7.28239 1.13602C13.0293 0.493722 18.9705 0.493722 24.7173 1.13602C27.8813 1.48964 30.4333 3.98261 30.8046 7.15769C31.4918 13.0327 31.4918 18.9677 30.8046 24.8427C30.4333 28.0179 27.8813 30.5109 24.7173 30.8644C18.9705 31.5067 13.0293 31.5067 7.28239 30.8644C4.11839 30.5109 1.5664 28.0179 1.19504 24.8427C0.507904 18.9677 0.507904 13.0327 1.19504 7.15769C1.5664 3.98261 4.11839 1.48964 7.28239 1.13602ZM24.3331 6.00024C23.4126 6.00024 22.6665 6.74644 22.6665 7.66691C22.6665 8.58737 23.4126 9.33357 24.3331 9.33357C25.2536 9.33357 25.9998 8.58737 25.9998 7.66691C25.9998 6.74644 25.2536 6.00024 24.3331 6.00024ZM8.08315 16.0002C8.08315 11.628 11.6276 8.08357 15.9998 8.08357C20.3721 8.08357 23.9165 11.628 23.9165 16.0002C23.9165 20.3726 20.3721 23.9169 15.9998 23.9169C11.6276 23.9169 8.08315 20.3726 8.08315 16.0002Z" fill="white"/>
</svg>
