<svg width="23" height="27" viewBox="0 0 23 27" fill="none" xmlns="http://www.w3.org/2000/svg">
<path d="M8.60602 26.5953C10.3974 26.3322 12.0489 25.5093 13.3532 24.2217C14.9543 22.6374 15.8388 20.5381 15.85 18.2989L15.8276 8.33978C16.589 8.92759 17.4231 9.42022 18.3244 9.7953C19.7183 10.3831 21.1962 10.6854 22.7133 10.6854V7.45527C21.0283 7.13058 19.5616 6.19009 18.5595 4.86893C17.2384 3.87246 16.2867 2.40575 15.9564 0.720703H12.7486V12.8855L12.743 19.5473C12.743 21.3275 11.573 22.839 9.94957 23.3708C9.47933 23.5275 8.9699 23.6003 8.43808 23.5667C7.09452 23.494 5.92451 22.7718 5.23594 21.7138C4.06593 21.0196 3.27099 19.76 3.2486 18.3157C3.21501 16.0652 5.0512 14.229 7.32405 14.229C7.7719 14.229 8.20295 14.3018 8.60602 14.4306V11.1165C6.34437 11.1333 4.22267 12.0122 2.6272 13.5964C1.04293 15.1695 0.136029 17.3192 0.141627 19.5473C0.141627 21.529 0.830199 23.41 2.10098 24.9159C3.59008 26.0635 5.40948 26.6849 7.32405 26.6849C7.7551 26.6905 8.18616 26.6569 8.60602 26.5953Z" fill="white"/>
</svg>
